<?xml version="1.0" encoding="UTF-8"?>
<svg width="400" height="400" xmlns="http://www.w3.org/2000/svg" xmlns:svg="http://www.w3.org/2000/svg">
 <title>white paw print</title>

 <metadata id="metadata4893">image/svg+xml</metadata>
 <g>
  <title>Layer 1</title>
  <g id="layer1">
   <g font-size="225.160095px" font-style="normal" font-weight="normal" fill="#000000" display="inline" font-family="Eras Bold ITC" id="text11467">
    <path fill="#ffffff" fill-rule="evenodd" id="path5127" d="m167.04602,44.990377l-5.6109,40.60838l-5.11984,6.18944l-0.94689,0.85914l-2.29702,2.64758l-2.12143,3.05094l-1.96383,3.40151l-1.80596,3.75228l-1.5781,4.0503l-1.40273,4.34833l-1.17474,4.5939l-0.91173,4.8569l-0.7014,5.04973l-0.40323,5.26014l-0.15781,5.38285l0.15781,5.3654l0.40323,5.26014l0.7014,5.04973l0.91173,4.85683l1.17474,4.5939l1.40273,4.3484l1.5781,4.0503l1.80596,3.76979l1.96383,3.384l2.12143,3.05094l2.29702,2.64758l2.41966,2.20926l2.56002,1.78844l1.29739,0.70133l1.35012,0.59619l1.38522,0.47342l1.36763,0.33312l1.40273,0.19289l1.43775,0.0701l1.4203,-0.0701l1.40259,-0.19289l1.38521,-0.33312l1.36764,-0.47342l1.35006,-0.59619l1.3151,-0.70133l2.54237,-1.78844l2.41966,-2.20926l2.29695,-2.64758l2.12163,-3.05094l1.99886,-3.384l1.77093,-3.76979l1.59562,-4.0503l1.40259,-4.3484l1.15723,-4.5939l0.92938,-4.85683l0.68375,-5.04973l0.33319,-4.20811l-0.43839,0.0701c0.74118,-15.04412 -0.99969,-27.98557 -7.46933,-43.44878l-2.82303,-4.97962l-1.26243,-1.80602l-2.29695,-2.64758l-2.41966,-2.20926l-2.54237,-1.78845l-1.3151,-0.70139l-1.01688,-0.45584l-2.20932,-4.59389l-5.24249,-37.90813l0,0.00001zm67.3298,3.06839l-8.46889,42.95793l-1.29745,0.70132l-2.55996,1.78845l-2.41966,2.20926l-2.29681,2.64764l-1.24492,1.80596l-2.84054,4.97962c-4.87653,13.95257 -7.84402,28.32933 -7.46953,43.44885l-0.43832,-0.0702l0.33319,4.20811l0.68388,5.04979l0.92925,4.85684l1.17474,4.59389l1.40272,4.34834l1.57811,4.0503l1.78844,3.76979l1.98134,3.38406l2.12164,3.05088l2.29681,2.64758l2.41966,2.20926l2.55996,1.78844l1.29745,0.7014l1.35013,0.59613l1.3677,0.47341l1.38515,0.33318l1.40272,0.19283l1.42024,0.0702l1.43781,-0.0702l1.40259,-0.19283l1.38522,-0.33318l1.36763,-0.47341l1.35006,-0.59613l1.29759,-0.7014l2.55982,-1.78844l2.41966,-2.20926l2.29702,-2.64758l2.12163,-3.05088l1.96383,-3.38406l1.80595,-3.76979l1.57811,-4.0503l1.40259,-4.34834l1.17474,-4.59389l0.92938,-4.85684l0.68369,-5.04979l0.40336,-5.26014l0.15787,-5.38285l-0.15787,-5.3654l-0.40336,-5.26014l-0.68369,-5.04973l-0.92938,-4.85683l-1.17474,-4.5939l-1.40259,-4.3484l-1.57811,-4.0503l-1.80595,-3.75221l-1.96383,-3.40158l-2.12163,-3.05088l-2.29702,-2.64764l-0.94669,-0.85914l-5.11984,-6.18944l-5.6109,-40.60838l0,0.00002zm-139.92,74.90452l-0.07005,0.0351l-0.08763,0l-0.07018,0.0175l-0.07018,0l-0.15787,0l-0.15767,0l-0.1578,0.0351l-0.14036,0.0175l-0.31554,0.0526l-0.07018,0.0176l-0.10514,0.0526l-0.15787,0.0526l-0.14036,0.035l-0.15767,0.0526l-0.1578,0.0701l-0.15787,0.0877l-0.28052,0.12278l-0.14036,0.1052l-0.14016,0.10514l-0.28052,0.15787l-0.57868,0.42081l-0.31554,0.28052l-0.28052,0.263l-0.52602,0.54353l-1.05209,1.35012l-1.01687,1.61313l-0.91193,1.84105l-0.87658,2.08654l-0.754,2.26186l-0.71891,2.47226l-1.10456,5.45303l-0.70139,6.06667l-0.26301,6.43494l0.26301,6.45246l0.70139,6.06667l1.10456,5.45302l0.71891,2.47227l0.754,2.26186l0.87658,2.08654l0.22805,0.4559l-0.03502,0.24543l-0.08769,3.61198l0.14022,3.76978l0.42081,3.89251l0.68376,4.06788l0.9644,4.1029l1.22741,4.20811l1.50792,4.2432l1.78845,4.22562l2.0163,4.13799l2.19181,3.91008l2.31446,3.66452l2.4722,3.40157l2.56002,3.13857l2.64751,2.84048l2.73534,2.54237l2.75284,2.24435l2.77036,1.87614l2.78788,1.52544l2.75284,1.19232l2.73514,0.78902l2.66523,0.42081l2.61249,-0.0351l1.24491,-0.15781l1.22741,-0.263l1.19226,-0.38572l1.17474,-0.49099l1.1222,-0.59613l1.0521,-0.70133l0.99942,-0.8066l0.92918,-0.89422l1.6658,-2.01636l1.42023,-2.36707l1.1573,-2.64764l0.91174,-2.94568l0.64866,-3.19117l0.36821,-3.41909l0.1052,-3.61191l-0.14023,-3.76979l-0.42081,-3.89256l-0.68388,-4.06782l-0.96427,-4.1029l-1.22741,-4.20811l-1.50793,-4.2432l-1.78844,-4.22569l-2.0163,-4.13793l-2.15679,-3.91007l-2.34954,-3.66459l-2.45462,-3.40151l-2.57754,-3.13857l-2.63,-2.84047l-2.71782,-2.54244l-2.75285,-2.20926l-2.78787,-1.91116l-2.78787,-1.52544l-2.77036,-1.19232l-2.73514,-0.78902l-2.68274,-0.42081l-2.57746,0.0351l-1.26243,0.1578l-1.22741,0.26301l-0.87672,0.28052l-0.01718,-0.0877l-1.19225,-3.29637l-1.10476,-3.45412l-0.91173,-3.61198l-0.75387,-3.76978l-0.57868,-3.80481l-0.33305,-3.73476l-0.15781,-3.61192l0,-3.52429l0.22785,-3.36655l0.42081,-3.20869l0.10521,-0.49092l0.08769,-0.49092l0.1578,-0.92932l-0.01784,0l-0.03502,-0.0351l-0.01784,0l-0.03502,0l-0.07018,0l-0.05287,0l0.00046,0.00004zm209.07346,0.0526l-0.035,0.0351l-0.0172,0l0.15787,0.92931l0.0876,0.49092l0.10521,0.49093l0.42087,3.20868l0.22785,3.36655l0,3.52429l-0.15773,3.61192l-0.33319,3.73476l-0.57868,3.80481l-0.75387,3.76978l-0.91173,3.61199l-1.10476,3.45411l-1.19225,3.29637l-0.0172,0.0877l-0.87677,-0.28052l-1.22741,-0.263l-1.26237,-0.15781l-2.57753,-0.0351l-2.68267,0.42081l-2.7352,0.78902l-2.77036,1.19232l-2.78788,1.52544l-2.7878,1.91116l-2.75285,2.20926l-2.71789,2.54244l-2.63,2.84048l-2.57747,3.13856l-2.45468,3.40151l-2.34949,3.66459l-2.15665,3.91008l-2.0165,4.13799l-1.78844,4.22562l-1.50793,4.2432l-1.22741,4.20811l-0.9642,4.1029l-0.68389,4.06782l-0.42087,3.89256l-0.14016,3.76972l0.10513,3.61199l0.36821,3.41908l0.64873,3.19117l0.91173,2.94568l1.15723,2.64765l1.42024,2.36706l1.6658,2.01636l0.92925,0.89422l0.99935,0.8066l1.0521,0.70133l1.1222,0.59613l1.17481,0.49099l1.19219,0.38572l1.22747,0.263l1.24486,0.15781l2.61255,0.0351l2.66516,-0.42081l2.73521,-0.78902l2.75284,-1.19232l2.78788,-1.52544l2.77029,-1.87614l2.75285,-2.24434l2.7354,-2.54238l2.64751,-2.84047l2.55996,-3.13857l2.4722,-3.40158l2.31446,-3.66458l2.19181,-3.91001l2.01629,-4.138l1.78852,-4.22562l1.50792,-4.2432l1.22741,-4.20811l0.9644,-4.1029l0.68369,-4.06788l0.42088,-3.8925l0.14029,-3.76979l-0.0876,-3.61198l-0.035,-0.24543l0.22798,-0.4559l0.87658,-2.08654l0.75407,-2.26186l0.71884,-2.47226l1.10456,-5.45303l0.70139,-6.06667l0.26301,-6.45246l-0.26301,-6.43494l-0.70139,-6.06667l-1.10456,-5.45302l-0.71884,-2.47227l-0.75407,-2.26192l-0.87658,-2.08648l-0.91186,-1.84105l-1.01694,-1.61313l-1.05203,-1.35012l-0.52608,-0.54352l-0.28052,-0.26301l-0.31547,-0.28052l-0.57875,-0.42081l-0.28052,-0.15781l-0.14016,-0.1052l-0.14036,-0.1052l-0.28051,-0.12278l-0.15781,-0.0876l-0.15787,-0.0702l-0.15767,-0.0526l-0.14036,-0.035l-0.1578,-0.0526l-0.10521,-0.0526l-0.0702,-0.0176l-0.31555,-0.0526l-0.14029,-0.0175l-0.15774,-0.0351l-0.1578,0l-0.15787,0l-0.0701,0l-0.0702,-0.0175l-0.0877,0l-0.07,-0.0351l-0.0529,0l-0.0702,0l-0.035,0l-0.0172,0l-0.0009,-0.00003zm-105.71153,88.61596l-3.6821,0.21041l-3.55925,0.5611l-3.45424,0.94682l-3.31389,1.29753l-3.1385,1.61306l-2.98076,1.89365c-9.71394,10.54954 -12.70085,21.09902 -17.51632,31.64857l-2.06897,2.92816l-2.33197,2.70025l-2.57753,2.47226l-2.75285,2.20926l-2.9807,1.89365l-3.1385,1.61306c-11.44126,2.87642 -18.63191,7.16965 -24.86299,11.78278l-2.57754,2.47227l-2.33197,2.70024l-2.05152,2.94568l-2.77029,5.29523l-0.56104,1.20983l-1.20996,3.50671l-0.87671,3.66458l-0.56104,3.7873l-0.17531,3.91008l0.17531,3.8925l0.56104,3.80481l0.87671,3.66458l1.20996,3.50678l1.50793,3.3314l1.8234,3.17365l2.05152,2.92806l2.33197,2.7003l2.57754,2.4723l2.75284,2.2092l2.9807,1.9112l3.13851,1.5956l3.31388,1.315c6.52105,3.3298 12.16909,3.3939 19.26967,0.6138l0.035,-0.053l2.06896,-0.5611l3.31389,-1.315l3.1385,-1.5957l2.99821,-1.9111c18.0878,-11.65264 38.07023,-18.68702 69.22365,1.5079l2.9807,1.9112c9.93471,6.6294 20.39809,6.1215 31.15757,1.6131l3.12106,-1.6131l2.99835,-1.9112l2.75284,-2.2093l2.57734,-2.4722l2.31452,-2.7003l2.06897,-2.9282l1.80609,-3.17355l1.50779,-3.33146l1.22741,-3.50678l0.8592,-3.66452l0.56104,-3.80481l0.19289,-3.89257l-0.19289,-3.91001l-0.56104,-3.78729l-0.8592,-3.66459l-1.22741,-3.50678l-1.50779,-3.33139l-1.80609,-3.17366l-2.06897,-2.94568l-2.31452,-2.70018l-2.57734,-2.47226l-2.75284,-2.20934l-2.99835,-1.89358l-11.34425,-3.29637l-3.31388,-1.31504l-3.1387,-1.61313l-2.9807,-1.89365l-2.75285,-2.20925l-2.5774,-2.47227l-2.33197,-2.70024l-2.05145,-2.94568l-1.82361,-3.15608l-8.97732,-22.72385l-2.06896,-2.94568l-2.31446,-2.70018l-2.57753,-2.47233l-2.75285,-2.20926l-2.9807,-1.89364l-3.1385,-1.61307l-3.31389,-1.29752l-3.45424,-0.94682l-3.57689,-0.56111l-3.66459,-0.2104l0.00017,0.00036z"/>
   </g>
  </g>
 </g>
</svg>